<?xml version="1.0" standalone="no"?><svg xmlns="http://www.w3.org/2000/svg" viewBox="0 0 1440 320"><path fill="#ffffff" fill-opacity="1" d="M0,0L34.3,5.3C68.6,11,137,21,206,58.7C274.3,96,343,160,411,176C480,192,549,160,617,165.3C685.7,171,754,213,823,218.7C891.4,224,960,192,1029,165.3C1097.1,139,1166,117,1234,96C1302.9,75,1371,53,1406,42.7L1440,32L1440,320L1405.7,320C1371.4,320,1303,320,1234,320C1165.7,320,1097,320,1029,320C960,320,891,320,823,320C754.3,320,686,320,617,320C548.6,320,480,320,411,320C342.9,320,274,320,206,320C137.1,320,69,320,34,320L0,320Z"></path></svg>